<svg width="200" height="200" viewBox="8 9 79 76" fill="none" xmlns="http://www.w3.org/2000/svg">
    <path d="M47.5 9.7948C11.2046 9.7948 9.89899 11.0866 9.89899 47C9.89899 82.9134 11.2046 84.2052 47.5 84.2052C83.7954 84.2052 85.101 82.9134 85.101 47C85.101 11.0866 83.7954 9.7948 47.5 9.7948Z" fill="#5FE4D4"/>
    <path d="M72.7404 58.717H22.4824C21.9663 58.717 21.5474 59.1218 21.5474 59.6205V66.849C21.5474 67.3478 21.9663 67.7526 22.4824 67.7526H72.7404C73.2566 67.7526 73.6755 67.3478 73.6755 66.849V59.6205C73.6755 59.1209 73.2575 58.717 72.7404 58.717Z" fill="white" fill-opacity="0.7"/>
    <path d="M72.7406 58.4448H22.4826C21.8121 58.4448 21.267 58.9716 21.267 59.6194V66.8479C21.267 67.4958 21.8121 68.0226 22.4826 68.0226H72.7406C73.411 68.0226 73.9562 67.4958 73.9562 66.8479V59.6194C73.9562 58.9716 73.411 58.4448 72.7406 58.4448ZM22.4826 67.4804C22.1216 67.4804 21.828 67.1967 21.828 66.8479V59.6194C21.828 59.2706 22.1216 58.9869 22.4826 58.9869H72.7406C73.1015 58.9869 73.3951 59.2706 73.3951 59.6194V66.8479C73.3951 67.1967 73.1015 67.4804 72.7406 67.4804H22.4826Z" fill="black" fill-opacity="0.5"/>
    <path d="M72.7404 26.2486H22.4824C21.9663 26.2486 21.5474 26.6534 21.5474 27.1522V34.3806C21.5474 34.8794 21.9663 35.2842 22.4824 35.2842H72.7404C73.2566 35.2842 73.6755 34.8794 73.6755 34.3806V27.1522C73.6755 26.6534 73.2575 26.2486 72.7404 26.2486Z" fill="white" fill-opacity="0.7"/>
    <path d="M72.7406 25.9764H22.4826C21.8121 25.9764 21.267 26.5032 21.267 27.151V34.3795C21.267 35.0274 21.8121 35.5542 22.4826 35.5542H72.7406C73.411 35.5542 73.9562 35.0274 73.9562 34.3795V27.151C73.9562 26.5032 73.411 25.9764 72.7406 25.9764ZM22.4826 35.012C22.1216 35.012 21.828 34.7283 21.828 34.3795V27.151C21.828 26.8023 22.1216 26.5185 22.4826 26.5185H72.7406C73.1015 26.5185 73.3951 26.8023 73.3951 27.151V34.3795C73.3951 34.7283 73.1015 35.012 72.7406 35.012H22.4826Z" fill="black" fill-opacity="0.5"/>
    <path d="M72.7404 37.8806H22.4824C21.9663 37.8806 21.5474 38.2854 21.5474 38.7841V55.2181C21.5474 55.7169 21.9663 56.1217 22.4824 56.1217H72.7404C73.2566 56.1217 73.6755 55.7169 73.6755 55.2181V38.7841C73.6755 38.2854 73.2575 37.8806 72.7404 37.8806Z" fill="white" fill-opacity="0.7"/>
    <path d="M72.7406 37.6083H22.4826C21.8121 37.6083 21.267 38.1352 21.267 38.783V55.217C21.267 55.8649 21.8121 56.3916 22.4826 56.3916H72.7406C73.411 56.3916 73.9562 55.8649 73.9562 55.217V38.783C73.9562 38.1352 73.411 37.6083 72.7406 37.6083ZM22.4826 55.8494C22.1216 55.8494 21.828 55.5658 21.828 55.217V38.783C21.828 38.4342 22.1216 38.1505 22.4826 38.1505H72.7406C73.1015 38.1505 73.3951 38.4342 73.3951 38.783V55.217C73.3951 55.5658 73.1015 55.8494 72.7406 55.8494H22.4826ZM26.5609 64.0667H23.5574V63.5246H26.5609V64.0667Z" fill="black" fill-opacity="0.5"/>
    <path d="M26.2971 41.0598H23.2936V40.5176H26.2971V41.0598ZM25.3383 65.2435H24.7773V62.3413H25.3383V65.2435ZM26.5613 31.0329H23.5578V30.4908H26.5613V31.0329Z" fill="black" fill-opacity="0.5"/>
    <path d="M25.3402 32.214H24.7791V29.3118H25.3402V32.214Z" fill="black" fill-opacity="0.5"/>
</svg>