<svg width="17" height="17" viewBox="0 0 17 17" fill="none" xmlns="http://www.w3.org/2000/svg">
<path d="M2.83423 4.51636H4.16756H14.8342" stroke="#9199A1" stroke-linecap="round" stroke-linejoin="round"/>
<path d="M6.16748 4.5164V3.18306C6.16748 2.82944 6.30796 2.4903 6.55801 2.24026C6.80805 1.99021 7.14719 1.84973 7.50081 1.84973H10.1675C10.5211 1.84973 10.8602 1.99021 11.1103 2.24026C11.3603 2.4903 11.5008 2.82944 11.5008 3.18306V4.5164M13.5008 4.5164V13.8497C13.5008 14.2034 13.3603 14.5425 13.1103 14.7925C12.8602 15.0426 12.5211 15.1831 12.1675 15.1831H5.50081C5.14719 15.1831 4.80805 15.0426 4.558 14.7925C4.30796 14.5425 4.16748 14.2034 4.16748 13.8497V4.5164H13.5008Z" stroke="#9199A1" stroke-linecap="round" stroke-linejoin="round"/>
<path d="M7.50098 7.84973V11.8497" stroke="#9199A1" stroke-linecap="round" stroke-linejoin="round"/>
<path d="M10.1675 7.84973V11.8497" stroke="#9199A1" stroke-linecap="round" stroke-linejoin="round"/>
</svg>
