<svg width="16" height="16" viewBox="0 0 16 16" fill="none" xmlns="http://www.w3.org/2000/svg">
<path d="M2.80286 4.25H4.05286H14.0529" stroke="white" stroke-linecap="round" stroke-linejoin="round"/>
<path d="M5.92786 4.25V3C5.92786 2.66848 6.05955 2.35054 6.29397 2.11612C6.52839 1.8817 6.84634 1.75 7.17786 1.75H9.67786C10.0094 1.75 10.3273 1.8817 10.5617 2.11612C10.7962 2.35054 10.9279 2.66848 10.9279 3V4.25M12.8029 4.25V13C12.8029 13.3315 12.6712 13.6495 12.4367 13.8839C12.2023 14.1183 11.8844 14.25 11.5529 14.25H5.30286C4.97134 14.25 4.65339 14.1183 4.41897 13.8839C4.18455 13.6495 4.05286 13.3315 4.05286 13V4.25H12.8029Z" stroke="white" stroke-linecap="round" stroke-linejoin="round"/>
<path d="M7.17786 7.375V11.125" stroke="white" stroke-linecap="round" stroke-linejoin="round"/>
<path d="M9.67786 7.375V11.125" stroke="white" stroke-linecap="round" stroke-linejoin="round"/>
</svg>
