<svg width="15" height="15" viewBox="0 0 15 15" fill="none" xmlns="http://www.w3.org/2000/svg">
<path d="M6.75085 2.84973H2.66752C2.3581 2.84973 2.06136 2.97265 1.84256 3.19144C1.62377 3.41023 1.50085 3.70698 1.50085 4.0164V12.1831C1.50085 12.4925 1.62377 12.7892 1.84256 13.008C2.06136 13.2268 2.3581 13.3497 2.66752 13.3497H10.8342C11.1436 13.3497 11.4404 13.2268 11.6591 13.008C11.8779 12.7892 12.0009 12.4925 12.0009 12.1831V8.09973" stroke="#424242" stroke-linecap="round" stroke-linejoin="round"/>
<path d="M11.1259 1.97474C11.3579 1.74268 11.6727 1.6123 12.0009 1.6123C12.329 1.6123 12.6438 1.74268 12.8759 1.97474C13.1079 2.20681 13.2383 2.52155 13.2383 2.84974C13.2383 3.17793 13.1079 3.49268 12.8759 3.72474L7.33419 9.26641L5.00085 9.84974L5.58419 7.51641L11.1259 1.97474Z" stroke="#424242" stroke-linecap="round" stroke-linejoin="round"/>
</svg>
