<svg
                                        width="20"
                                        height="21"
                                        viewBox="0 0 20 21"
                                        fill="none"
                                        xmlns="http://www.w3.org/2000/svg"
                                >
                                    <path
                                            d="M11.849 17.8051C11.849 18.0479 11.8011 18.2883 11.7082 18.5127C11.6153 18.737 11.4791 18.9408 11.3074 19.1125C11.1357 19.2842 10.9319 19.4204 10.7075 19.5133C10.4832 19.6063 10.2427 19.6541 9.99993 19.6541C9.75711 19.6541 9.51666 19.6063 9.29233 19.5133C9.06799 19.4204 8.86415 19.2842 8.69245 19.1125C8.52075 18.9408 8.38455 18.737 8.29163 18.5127C8.19871 18.2883 8.15088 18.0479 8.15088 17.8051"
                                            stroke="#575766"
                                            stroke-width="1.5"
                                            stroke-linecap="round"
                                    />
                                    <path
                                            d="M17.865 14.6632L17.8647 14.6629C17.8221 14.6172 17.7755 14.5683 17.7257 14.5161C17.361 14.1337 16.8201 13.5666 16.3748 12.665C15.8665 11.6357 15.4969 10.2134 15.4969 8.125C15.4969 5.46472 13.6377 3.32622 11.0967 2.79839L10.4992 2.67427V2.06406V1.25C10.4992 0.973521 10.2752 0.75 10 0.75C9.72486 0.75 9.50081 0.973521 9.50081 1.25V2.06406V2.67427L8.90335 2.79839C6.3624 3.32622 4.50315 5.46472 4.50315 8.125C4.50315 10.2134 4.13357 11.6357 3.62523 12.665C3.17996 13.5666 2.63903 14.1337 2.27438 14.5161C2.22456 14.5683 2.17804 14.6171 2.1355 14.6628C2.0354 14.7704 1.9993 14.8854 2.00001 14.995L17.865 14.6632ZM17.865 14.6632C17.9645 14.77 18.0008 14.8851 18 14.995L18 14.9954M17.865 14.6632L18 14.9954M18 14.9954C17.9984 15.2685 17.7871 15.5 17.4961 15.5H2.50393C2.21337 15.5 2.00188 15.2689 2.00001 14.995L18 14.9954Z"
                                            stroke="#575766"
                                            stroke-width="1.5"
                                    />
                                </svg>