<svg width="15" height="15" viewBox="0 0 15 15" fill="none" xmlns="http://www.w3.org/2000/svg">
<path d="M11.4176 6.93298H3.2509C2.60656 6.93298 2.08423 7.45532 2.08423 8.09965V12.183C2.08423 12.8273 2.60656 13.3496 3.2509 13.3496H11.4176C12.0619 13.3496 12.5842 12.8273 12.5842 12.183V8.09965C12.5842 7.45532 12.0619 6.93298 11.4176 6.93298Z" stroke="#0275D8" stroke-linecap="round" stroke-linejoin="round"/>
<path d="M4.4176 6.93298V4.59965C4.4176 3.8261 4.72489 3.08424 5.27187 2.53726C5.81886 1.99027 6.56072 1.68298 7.33427 1.68298C8.10782 1.68298 8.84968 1.99027 9.39666 2.53726C9.94364 3.08424 10.2509 3.8261 10.2509 4.59965V6.93298" stroke="#0275D8" stroke-linecap="round" stroke-linejoin="round"/>
</svg>
