<svg width="15" height="15" viewBox="0 0 15 15" fill="none" xmlns="http://www.w3.org/2000/svg">
<path d="M9.17174 7.25391H5.49679C5.20685 7.25391 4.9718 7.48895 4.9718 7.7789V9.61637C4.9718 9.90631 5.20685 10.1414 5.49679 10.1414H9.17174C9.46168 10.1414 9.69673 9.90631 9.69673 9.61637V7.7789C9.69673 7.48895 9.46168 7.25391 9.17174 7.25391Z" stroke="#CC8033" stroke-linecap="round" stroke-linejoin="round"/>
<path d="M6.02173 7.25382V6.20384C6.02173 5.85575 6.16001 5.52191 6.40614 5.27577C6.65228 5.02964 6.98612 4.89136 7.33421 4.89136C7.6823 4.89136 8.01613 5.02964 8.26227 5.27577C8.50841 5.52191 8.64669 5.85575 8.64669 6.20384V7.25382" stroke="#CC8033" stroke-linecap="round" stroke-linejoin="round"/>
<path d="M7.33427 13.3497C7.33427 13.3497 12.0009 11.0163 12.0009 7.51632V3.43298L7.33427 1.68298L2.6676 3.43298V7.51632C2.6676 11.0163 7.33427 13.3497 7.33427 13.3497Z" stroke="#CC8033" stroke-linecap="round" stroke-linejoin="round"/>
</svg>
