<svg width="17" height="17" viewBox="0 0 17 17" fill="none" xmlns="http://www.w3.org/2000/svg">
<g opacity="0.6">
<path fill-rule="evenodd" clip-rule="evenodd" d="M10.633 2.44819C10.6447 2.17229 10.8778 1.95806 11.1536 1.96969L14.9883 2.13135C15.1204 2.13366 15.2513 2.18799 15.3478 2.29292C15.4429 2.39648 15.4862 2.52936 15.4788 2.65952L15.317 6.49946C15.3053 6.77536 15.0722 6.98959 14.7963 6.97796C14.5204 6.96633 14.3062 6.73324 14.3178 6.45734L14.4292 3.8163L8.50429 9.26184C8.30098 9.44871 7.98468 9.43537 7.79781 9.23206C7.61095 9.02875 7.62428 8.71245 7.8276 8.52558L13.7524 3.08013L11.1115 2.9688C10.8356 2.95717 10.6214 2.72408 10.633 2.44819ZM3.90301 3.69435C3.4635 3.69435 3.042 3.86894 2.73122 4.17972C2.42044 4.4905 2.24585 4.912 2.24585 5.35151V13.4516C2.24585 13.8911 2.42044 14.3126 2.73122 14.6234C3.042 14.9342 3.4635 15.1088 3.90301 15.1088H12.0031C12.4426 15.1088 12.8641 14.9342 13.1749 14.6234C13.4857 14.3126 13.6603 13.8911 13.6603 13.4516V8.63012C13.6603 8.35398 13.4364 8.13012 13.1603 8.13012C12.8841 8.13012 12.6603 8.35398 12.6603 8.63012V13.4516C12.6603 13.6259 12.591 13.7931 12.4678 13.9163C12.3446 14.0395 12.1774 14.1088 12.0031 14.1088H3.90301C3.72872 14.1088 3.56157 14.0395 3.43833 13.9163C3.31509 13.7931 3.24585 13.6259 3.24585 13.4516V5.35151C3.24585 5.17722 3.31509 5.01007 3.43833 4.88683C3.56157 4.76359 3.72872 4.69435 3.90301 4.69435H8.7245C9.00064 4.69435 9.2245 4.47049 9.2245 4.19435C9.2245 3.91821 9.00064 3.69435 8.7245 3.69435H3.90301Z" fill="#9199A1"/>
</g>
</svg>
