<svg id="svg-27" enable-background="new 0 0 258.9 176.9" viewBox="0 0 258.9 176.9" xmlns="http://www.w3.org/2000/svg"><path d="m256.9 2v172.9h-254.9v-172.9zm2-2h-258.9v176.9h258.9z"></path><g fill="none" stroke="#000" stroke-miterlimit="10" stroke-width="2"><path d="m20.1 21.1h43.4v27.4h-43.4z"></path><path d="m78.4 21.1h43.4v27.4h-43.4z"></path><path d="m20.1 59h43.4v27.4h-43.4z"></path><path d="m78.4 59h43.4v27.4h-43.4z"></path><path d="m20.1 96.5h43.4v27.4h-43.4z"></path><path d="m78.4 96.5h43.4v27.4h-43.4z"></path><path d="m135.3 21.1h43.4v27.4h-43.4z"></path><path d="m193.6 21.1h43.4v27.4h-43.4z"></path><path d="m135.3 59h43.4v27.4h-43.4z"></path><path d="m193.6 59h43.4v27.4h-43.4z"></path><path d="m135.3 96.5h43.4v27.4h-43.4z"></path><path d="m193.6 96.5h43.4v27.4h-43.4z"></path><path d="m20.1 133.8h43.4v27.4h-43.4z"></path><path d="m78.4 133.8h43.4v27.4h-43.4z"></path><path d="m135.3 133.8h43.4v27.4h-43.4z"></path><path d="m193.6 133.8h43.4v27.4h-43.4z"></path></g></svg>