<svg version="1.1" id="Capa_1" xmlns="http://www.w3.org/2000/svg" xmlns:xlink="http://www.w3.org/1999/xlink" x="0px" y="0px" fill="white" width="16px" height="16px" viewBox="0 0 16 16" style="enable-background:new 0 0 31.592 31.592;" xml:space="preserve"><g><g><path d="M10.034 10.161c-0.019 0.035 -0.056 0.069 -0.056 0.101v3.237c0 0.535 -0.45 0.95 -0.983 0.95H2.225c-0.534 0 -0.978 -0.415 -0.978 -0.95V4.83c0 -0.534 0.444 -0.982 0.978 -0.982h6.768c0.195 0 0.375 0.065 0.527 0.164l1.087 -1.204c-0.191 -0.113 -0.412 -0.172 -0.652 -0.172H1.212C0.538 2.636 0 3.176 0 3.851v10.61c0 0.703 0.561 1.271 1.264 1.271h8.69c0.704 0 1.27 -0.568 1.27 -1.271V8.855l-1.048 1.174C10.131 10.081 10.087 10.124 10.034 10.161z"/><path d="M2.859 5.511c-0.345 0 -0.624 0.261 -0.624 0.607c0 0.344 0.28 0.606 0.624 0.606h4.229l1.107 -1.212H2.859z"/><path d="M6.391 7.625c0.006 -0.021 0.013 -0.035 0.021 -0.07H2.859c-0.345 0 -0.624 0.279 -0.624 0.623c0 0.342 0.28 0.622 0.624 0.622h3.195L6.391 7.625z"/><path d="M5.014 9.634H3.147H2.859c-0.345 0 -0.623 0.279 -0.623 0.622c0 0.343 0.279 0.623 0.623 0.623H3.96h0.345h0.71c0.276 0 0.509 -0.182 0.592 -0.429c0.005 -0.066 0.015 -0.137 0.032 -0.201c-0.002 -0.312 -0.232 -0.568 -0.533 -0.61C5.076 9.635 5.045 9.634 5.014 9.634z"/><path d="M11.689 2.689l-4.004 4.462l-0.271 0.302l2.167 1.943l0.271 -0.302l4.002 -4.462l0.324 -0.359l-2.167 -1.944L11.689 2.689zM11.469 4.707l-2.582 2.877c-0.032 0.036 -0.077 0.058 -0.126 0.061c-0.049 0.003 -0.095 -0.014 -0.132 -0.047l-0.129 -0.115c-0.074 -0.067 -0.08 -0.182 -0.013 -0.258l2.582 -2.878c0.031 -0.036 0.077 -0.058 0.127 -0.06c0.048 -0.003 0.095 0.014 0.132 0.046l0.127 0.115C11.53 4.517 11.535 4.632 11.469 4.707zM12.218 3.34l0.128 0.114c0.074 0.067 0.081 0.181 0.014 0.256c0 0 -0.001 0.001 -0.001 0.001l-0.223 0.25c-0.01 0.01 -0.019 0.019 -0.03 0.026c-0.029 0.02 -0.061 0.032 -0.096 0.034c-0.049 0.003 -0.095 -0.014 -0.132 -0.047l-0.129 -0.114c-0.035 -0.032 -0.057 -0.077 -0.06 -0.126c-0.004 -0.048 0.013 -0.096 0.047 -0.132l0.224 -0.25C12.027 3.28 12.144 3.273 12.218 3.34z"/><path points="24.518,3.707 24.128,4.139 28.404,7.978 28.795,7.543 29.458,6.805 25.18,2.967 		" d="M12.417 1.877L12.22 2.096L14.385 4.041L14.583 3.82L14.919 3.446L12.753 1.503Z"/><path d="M15.79 1.531l-1.229 -1.102c-0.124 -0.111 -0.287 -0.169 -0.454 -0.16s-0.325 0.084 -0.435 0.208l-0.725 0.807l2.166 1.943l0.725 -0.807C16.071 2.163 16.05 1.763 15.79 1.531zM15.071 2.418l-1.313 -1.178l0.379 -0.422l1.312 1.178L15.071 2.418z"/><path d="M6.831 10.706l2.49 -1.021l-2.165 -1.942l-0.746 2.586c-0.033 0.116 0.003 0.241 0.092 0.321C6.592 10.73 6.719 10.753 6.831 10.706zM7.353 8.434l1.259 1.129l-0.978 0.401l-0.573 -0.514L7.353 8.434z"/></g></g></svg>