<svg width="15" height="15" viewBox="0 0 15 15" fill="none" xmlns="http://www.w3.org/2000/svg">
<path d="M8.50094 1.68298H3.83427C3.52485 1.68298 3.2281 1.8059 3.00931 2.02469C2.79052 2.24348 2.6676 2.54023 2.6676 2.84965V12.183C2.6676 12.4924 2.79052 12.7891 3.00931 13.0079C3.2281 13.2267 3.52485 13.3497 3.83427 13.3497H10.8343C11.1437 13.3497 11.4404 13.2267 11.6592 13.0079C11.878 12.7891 12.0009 12.4924 12.0009 12.183V5.18298L8.50094 1.68298Z" stroke="white" stroke-linecap="round" stroke-linejoin="round"/>
<path d="M8.50085 1.68298V5.18298H12.0009" stroke="white" stroke-linecap="round" stroke-linejoin="round"/>
<path d="M9.66752 8.09973H5.00085" stroke="white" stroke-linecap="round" stroke-linejoin="round"/>
<path d="M9.66752 10.433H5.00085" stroke="white" stroke-linecap="round" stroke-linejoin="round"/>
<path d="M6.16752 5.76636H5.58419H5.00085" stroke="white" stroke-linecap="round" stroke-linejoin="round"/>
</svg>
