<svg width="21" height="21" viewBox="0 0 21 21" fill="none" xmlns="http://www.w3.org/2000/svg">
<path d="M8.6422 4.2504C8.4822 4.81929 8.4022 5.41484 8.4022 6.01929C8.4022 9.64595 11.3533 12.5971 14.98 12.5971C15.5844 12.5971 16.18 12.5171 16.7489 12.3571C15.8244 14.6326 13.5844 16.2415 10.98 16.2415C7.54887 16.2415 4.75776 13.4504 4.75776 10.0193C4.75776 7.41484 6.36665 5.17484 8.6422 4.2504ZM10.98 2.01929C6.5622 2.01929 2.97998 5.60151 2.97998 10.0193C2.97998 14.4371 6.5622 18.0193 10.98 18.0193C15.3978 18.0193 18.98 14.4371 18.98 10.0193C18.98 9.58308 18.4035 9.41801 18.0694 9.69848C17.2355 10.3986 16.1597 10.8193 14.98 10.8193C12.3311 10.8193 10.18 8.66818 10.18 6.01929C10.18 4.84565 10.601 3.76661 11.3014 2.93055C11.5816 2.59618 11.4162 2.01929 10.98 2.01929Z" fill="#575766"/>
</svg>
