<svg width="16" height="16" viewBox="0 0 16 16" fill="none" xmlns="http://www.w3.org/2000/svg">
  <g opacity="0.6">
    <path fill-rule="evenodd" clip-rule="evenodd" d="M10.083 2.30976C10.0946 2.03386 10.3277 1.81963 10.6036 1.83126L14.1982 1.9828C14.3301 1.98521 14.4609 2.03954 14.5573 2.14437C14.6524 2.24789 14.6957 2.3807 14.6883 2.51081L14.5366 6.11046C14.525 6.38636 14.2919 6.60059 14.016 6.58896C13.7401 6.57733 13.5259 6.34424 13.5375 6.06834L13.6387 3.66774L8.13965 8.72189C7.93634 8.90875 7.62004 8.89542 7.43317 8.6921C7.24631 8.48879 7.25964 8.17249 7.46296 7.98562L12.9619 2.93157L10.5615 2.83038C10.2856 2.81874 10.0713 2.58566 10.083 2.30976ZM3.80481 3.4481C3.38448 3.4481 2.98137 3.61507 2.68416 3.91229C2.38694 4.2095 2.21997 4.61261 2.21997 5.03294V12.6268C2.21997 13.0471 2.38694 13.4502 2.68416 13.7474C2.98137 14.0447 3.38448 14.2116 3.80481 14.2116H11.3987C11.819 14.2116 12.2221 14.0446 12.5193 13.7474C12.8165 13.4502 12.9835 13.0471 12.9835 12.6268V8.10664C12.9835 7.8305 12.7596 7.60664 12.4835 7.60664C12.2073 7.60664 11.9835 7.8305 11.9835 8.10664V12.6268C11.9835 12.7819 11.9219 12.9307 11.8122 13.0403C11.7025 13.15 11.5538 13.2116 11.3987 13.2116H3.80481C3.6497 13.2116 3.50094 13.15 3.39127 13.0403C3.28159 12.9307 3.21997 12.7819 3.21997 12.6268V5.03294C3.21997 4.87783 3.28159 4.72907 3.39127 4.6194C3.50094 4.50972 3.6497 4.4481 3.80481 4.4481H8.32496C8.6011 4.4481 8.82496 4.22424 8.82496 3.9481C8.82496 3.67196 8.6011 3.4481 8.32496 3.4481H3.80481Z" fill="white"/>
  </g>
</svg>
