<svg width="15" height="15" viewBox="0 0 15 15" fill="none" xmlns="http://www.w3.org/2000/svg">
<path d="M12.5009 5.18302H3.16756C2.81756 5.18302 2.58423 4.94969 2.58423 4.59969C2.58423 4.24969 2.81756 4.01636 3.16756 4.01636H12.5009C12.8509 4.01636 13.0842 4.24969 13.0842 4.59969C13.0842 4.94969 12.8509 5.18302 12.5009 5.18302ZM11.3342 8.09969C11.3342 7.74969 11.1009 7.51636 10.7509 7.51636H4.91756C4.56756 7.51636 4.33423 7.74969 4.33423 8.09969C4.33423 8.44969 4.56756 8.68302 4.91756 8.68302H10.7509C11.1009 8.68302 11.3342 8.44969 11.3342 8.09969ZM9.58423 11.5997C9.58423 11.2497 9.35089 11.0164 9.0009 11.0164H6.66756C6.31756 11.0164 6.08423 11.2497 6.08423 11.5997C6.08423 11.9497 6.31756 12.183 6.66756 12.183H9.0009C9.35089 12.183 9.58423 11.9497 9.58423 11.5997Z" fill="#252733"/>
</svg>
