<svg width="17" height="17" viewBox="0 0 17 17" fill="none" xmlns="http://www.w3.org/2000/svg">
  <path d="M8.83423 14.5164C12.1479 14.5164 14.8342 11.8301 14.8342 8.51636C14.8342 5.20265 12.1479 2.51636 8.83423 2.51636C5.52052 2.51636 2.83423 5.20265 2.83423 8.51636C2.83423 11.8301 5.52052 14.5164 8.83423 14.5164Z" stroke="#2DB22D" stroke-linecap="round" stroke-linejoin="round"/>
  <path d="M8.83423 14.5164C9.9388 14.5164 10.8342 11.8301 10.8342 8.51636C10.8342 5.20265 9.9388 2.51636 8.83423 2.51636C7.72966 2.51636 6.83423 5.20265 6.83423 8.51636C6.83423 11.8301 7.72966 14.5164 8.83423 14.5164Z" stroke="#2DB22D" stroke-linecap="round" stroke-linejoin="round"/>
  <path d="M13.6342 12.1164C12.7877 11.4055 11.7732 10.9235 10.6875 10.7164C9.46642 10.449 8.20194 10.449 6.98085 10.7164C5.89512 10.9235 4.88061 11.4055 4.03418 12.1164" stroke="#2DB22D" stroke-linecap="round" stroke-linejoin="round"/>
  <path d="M13.6342 4.91638C12.7877 5.62721 11.7732 6.10921 10.6875 6.31638C10.0791 6.45199 9.45748 6.51907 8.83418 6.51638C8.21087 6.51907 7.58923 6.45199 6.98085 6.31638C5.89512 6.10921 4.88061 5.62721 4.03418 4.91638" stroke="#2DB22D" stroke-linecap="round" stroke-linejoin="round"/>
</svg>
