<svg width="16" height="16" viewBox="0 0 16 16" fill="none" xmlns="http://www.w3.org/2000/svg">
  <g opacity="0.7">
    <path d="M8 14C11.3137 14 14 11.3137 14 8C14 4.68629 11.3137 2 8 2C4.68629 2 2 4.68629 2 8C2 11.3137 4.68629 14 8 14Z" stroke="white" stroke-linecap="round" stroke-linejoin="round"/>
    <path d="M8 14C9.10457 14 10 11.3137 10 8C10 4.68629 9.10457 2 8 2C6.89543 2 6 4.68629 6 8C6 11.3137 6.89543 14 8 14Z" stroke="white" stroke-linecap="round" stroke-linejoin="round"/>
    <path d="M12.8 11.6C11.9536 10.8892 10.9391 10.4072 9.85335 10.2C8.63225 9.93268 7.36778 9.93268 6.14668 10.2C5.06095 10.4072 4.04645 10.8892 3.20001 11.6" stroke="white" stroke-linecap="round" stroke-linejoin="round"/>
    <path d="M12.8 4.40002C11.9536 5.11085 10.9391 5.59286 9.85335 5.80002C9.24496 5.93563 8.62332 6.00271 8.00001 6.00002C7.37671 6.00271 6.75506 5.93563 6.14668 5.80002C5.06095 5.59286 4.04645 5.11085 3.20001 4.40002" stroke="white" stroke-linecap="round" stroke-linejoin="round"/>
  </g>
</svg>