<svg width="21" height="20" viewBox="0 0 21 20" fill="none" xmlns="http://www.w3.org/2000/svg">
<path d="M10.9912 6.36364C8.98394 6.36364 7.35485 7.99273 7.35485 10C7.35485 12.0073 8.98394 13.6364 10.9912 13.6364C12.9985 13.6364 14.6276 12.0073 14.6276 10C14.6276 7.99273 12.9985 6.36364 10.9912 6.36364ZM3.71848 10.7273H5.17303C5.57303 10.7273 5.9003 10.4 5.9003 10C5.9003 9.6 5.57303 9.27273 5.17303 9.27273H3.71848C3.31848 9.27273 2.99121 9.6 2.99121 10C2.99121 10.4 3.31848 10.7273 3.71848 10.7273ZM16.8094 10.7273H18.2639C18.6639 10.7273 18.9912 10.4 18.9912 10C18.9912 9.6 18.6639 9.27273 18.2639 9.27273H16.8094C16.4094 9.27273 16.0821 9.6 16.0821 10C16.0821 10.4 16.4094 10.7273 16.8094 10.7273ZM10.2639 2.72727V4.18182C10.2639 4.58182 10.5912 4.90909 10.9912 4.90909C11.3912 4.90909 11.7185 4.58182 11.7185 4.18182V2.72727C11.7185 2.32727 11.3912 2 10.9912 2C10.5912 2 10.2639 2.32727 10.2639 2.72727ZM10.2639 15.8182V17.2727C10.2639 17.6727 10.5912 18 10.9912 18C11.3912 18 11.7185 17.6727 11.7185 17.2727V15.8182C11.7185 15.4182 11.3912 15.0909 10.9912 15.0909C10.5912 15.0909 10.2639 15.4182 10.2639 15.8182ZM6.6203 4.60364C6.33667 4.32 5.87121 4.32 5.59485 4.60364C5.31121 4.88727 5.31121 5.35273 5.59485 5.62909L6.36576 6.4C6.64939 6.68364 7.11485 6.68364 7.39121 6.4C7.66757 6.11636 7.67485 5.65091 7.39121 5.37455L6.6203 4.60364ZM15.6167 13.6C15.333 13.3164 14.8676 13.3164 14.5912 13.6C14.3076 13.8836 14.3076 14.3491 14.5912 14.6255L15.3621 15.3964C15.6458 15.68 16.1112 15.68 16.3876 15.3964C16.6712 15.1127 16.6712 14.6473 16.3876 14.3709L15.6167 13.6ZM16.3876 5.62909C16.6712 5.34545 16.6712 4.88 16.3876 4.60364C16.1039 4.32 15.6385 4.32 15.3621 4.60364L14.5912 5.37455C14.3076 5.65818 14.3076 6.12364 14.5912 6.4C14.8748 6.67636 15.3403 6.68364 15.6167 6.4L16.3876 5.62909ZM7.39121 14.6255C7.67485 14.3418 7.67485 13.8764 7.39121 13.6C7.10757 13.3164 6.64212 13.3164 6.36576 13.6L5.59485 14.3709C5.31121 14.6545 5.31121 15.12 5.59485 15.3964C5.87848 15.6727 6.34394 15.68 6.6203 15.3964L7.39121 14.6255Z" fill="white"/>
</svg>
