<svg height="512" viewBox="0 0 58 58" width="512" xmlns="http://www.w3.org/2000/svg"><g id="Page-1" fill="none" fill-rule="evenodd"><g id="019---Confidential-Documents" fill-rule="nonzero"><path id="Shape" d="m6 28v-26c.0032948-1.10320187.89679813-1.9967052 2-2h26l12 12v16z" fill="#95a5a5"/><path id="Shape" d="m40 18v40h-38c-1.10320187-.0032948-1.9967052-.8967981-2-2v-48c.0032948-1.10320187.89679813-1.9967052 2-2h26v10c.0032948 1.1032019.8967981 1.9967052 2 2z" fill="#ecf0f1"/><path id="Shape" d="m40 18h-10c-1.1032019-.0032948-1.9967052-.8967981-2-2v-10z" fill="#bdc3c7"/><path id="Shape" d="m58 41v14c0 1.6568542-1.3431458 3-3 3h-18c-1.6568542 0-3-1.3431458-3-3v-14c-.0061167-1.2713341.798164-2.40537 2-2.82.3193958-.1211006.6584234-.1821256 1-.18h18c.3415766-.0021256.6806042.0588994 1 .18 1.201836.41463 2.0061167 1.5486659 2 2.82z" fill="#f3d55b"/><path id="Shape" d="m48.957 45.482c.1821113 1.0202171-.1805548 2.0616034-.957 2.748v2.77c0 1.1045695-.8954305 2-2 2-1.1045695 0-2-.8954305-2-2v-2.77c-.6411361-.5630056-1.0060548-1.3767743-1-2.23-.0062571-1.5607281 1.1852139-2.8655427 2.740087-3.000749 1.5548732-.1352064 2.9536823.9443665 3.216913 2.482749z" fill="#a56a43"/><path id="Shape" d="m56 34v4.18c-.3193958-.1211006-.6584234-.1821256-1-.18h-3v-4c-.0000001-3.3137084-2.6862916-5.9999998-6-5.9999998s-5.9999999 2.6862914-6 5.9999998v4h-3c-.3415766-.0021256-.6806042.0588994-1 .18v-4.18c0-5.5228475 4.4771525-10 10-10s10 4.4771525 10 10z" fill="#d1d4d1"/><path id="Shape" d="m20 28.99v.01c-3.5555556 2.6666667-8.4444444 2.6666667-12 0v-.01c.00367405-2.4916724 1.54843463-4.7212237 3.88-5.6 1.2963253.8133175 2.9436747.8133175 4.24 0 2.3315654.8787763 3.8763259 3.1083276 3.88 5.6z" fill="#f29c1f"/><path id="Shape" d="m24 21c.0036407 3.1456569-1.4794049 6.1080406-4 7.99-.0036741-2.4916724-1.5484346-4.7212237-3.88-5.6 1.513199-.945752 2.2169337-2.7794347 1.7249943-4.494723s-2.0605565-2.8972676-3.8449943-2.8972676-3.3530549 1.1819793-3.8449943 2.8972676c-.49193936 1.7152883.2117953 3.548971 1.7249943 4.494723-2.33156537.8787763-3.87632595 3.1083276-3.88 5.6-3.76308032-2.8223139-5.05047768-7.8857077-3.09242533-12.162653 1.95805236-4.2769452 6.63215073-6.6110731 11.22753603-5.6067508 4.5953854 1.0043223 7.8695914 5.0755535 7.8648893 9.7794038z" fill="#3b97d3"/><path id="Shape" d="m18 20c-.0006861 1.3784504-.711077 2.6594214-1.88 3.39-1.2963253.8133175-2.9436747.8133175-4.24 0-1.6313997-1.019628-2.3058704-3.0561736-1.6055845-4.8480178.7002859-1.7918443 2.5769396-2.8313633 4.4673935-2.4745857 1.8904538.3567776 3.2591482 2.0087779 3.258191 3.9326035z" fill="#fdd7ad"/><g fill="#95a5a5"><path id="Shape" d="m27 37h-23c-.55228475 0-1-.4477153-1-1s.44771525-1 1-1h23c.5522847 0 1 .4477153 1 1s-.4477153 1-1 1z"/><path id="Shape" d="m27 42h-23c-.55228475 0-1-.4477153-1-1s.44771525-1 1-1h23c.5522847 0 1 .4477153 1 1s-.4477153 1-1 1z"/><path id="Shape" d="m27 47h-23c-.55228475 0-1-.4477153-1-1s.44771525-1 1-1h23c.5522847 0 1 .4477153 1 1s-.4477153 1-1 1z"/><path id="Shape" d="m15 52h-11c-.55228475 0-1-.4477153-1-1s.44771525-1 1-1h11c.5522847 0 1 .4477153 1 1s-.4477153 1-1 1z"/></g></g></g></svg>