<svg width="15" height="15" viewBox="0 0 15 15" fill="none" xmlns="http://www.w3.org/2000/svg">
<path d="M7.65931 6.17473C7.54264 6.2914 7.42598 6.34973 7.30931 6.34973H5.50098V11.5997C5.50098 11.9497 5.26764 12.1831 4.91764 12.1831C4.56764 12.1831 4.33431 11.9497 4.33431 11.5997V6.34973H2.52598C2.23431 6.34973 2.00098 6.1164 2.00098 5.82473C2.00098 5.70806 2.05931 5.53306 2.17598 5.47473L4.56764 3.08306C4.74264 2.84973 5.09264 2.84973 5.26764 3.02473L7.65931 5.4164C7.89264 5.64973 7.89264 5.99973 7.65931 6.17473ZM13.4926 8.85806C13.376 8.7414 13.2593 8.68306 13.1426 8.68306H11.3343V3.43306C11.3343 3.08306 11.101 2.84973 10.751 2.84973C10.401 2.84973 10.1676 3.08306 10.1676 3.43306V8.68306H8.35931C8.06764 8.68306 7.83431 8.9164 7.83431 9.20806C7.83431 9.32473 7.89264 9.49973 8.00931 9.55806L10.401 11.9497C10.6343 12.1831 10.926 12.1831 11.1593 11.9497L13.551 9.55806C13.726 9.38306 13.726 9.03306 13.4926 8.85806Z" fill="#6D6E6F"/>
</svg>
